<?xml version="1.0" encoding="utf-8"?>
<!-- Generator: Adobe Illustrator 27.0.0, SVG Export Plug-In . SVG Version: 6.00 Build 0)  -->
<svg version="1.1" id="Layer_1" xmlns="http://www.w3.org/2000/svg" xmlns:xlink="http://www.w3.org/1999/xlink" x="0px" y="0px"
	 viewBox="0 0 636.1 140.4" style="enable-background:new 0 0 636.1 140.4;" xml:space="preserve">
<style type="text/css">
	.st0{fill:#2B2C6A;}
</style>
<g>
	<path class="st0" d="M153.7,114.8c-7.9,0-14.1-2.5-18.4-7.6c-4.3-5-6.5-12.1-6.5-21.2h13.5c0,4.6,1,8.1,3,10.7
		c2,2.5,4.9,3.8,8.5,3.8c3.7,0,6.6-1.3,8.6-3.8s3-6.1,3-10.7V32.6h13V86c0,9.1-2.2,16.2-6.6,21.3S161.5,114.8,153.7,114.8z
		 M149.5,46.4V32.6h22.9v13.9H149.5z"/>
	<path class="st0" d="M211.1,114.8c-4,0-7.8-0.4-11.6-1.2s-7.1-1.9-10-3.3l1.8-15.4c3.6,1.8,7.2,3.1,10.8,4.1c3.6,1,6.9,1.4,9.9,1.4
		c3.5,0,6.2-0.7,8.1-2.2c1.9-1.4,2.8-3.5,2.8-6.2c0-3.5-1.9-6.4-5.8-8.5l-10-5.7c-5-2.8-8.8-6.3-11.5-10.5
		c-2.7-4.2-4.1-8.7-4.1-13.8c0-7.1,2-12.6,6.1-16.5s9.7-5.8,17.1-5.8c4.3,0,8.4,0.9,12.2,2.6c3.9,1.8,7.3,4.3,10.3,7.6l-9,11.9
		c-2.3-2.5-4.5-4.4-6.8-5.8c-2.3-1.4-4.5-2-6.6-2c-2.9,0-5.1,0.7-6.7,2.1c-1.6,1.4-2.4,3.5-2.4,6.2c0,1.8,0.6,3.5,1.7,5.1
		s2.7,3,4.8,4.3l9.5,5.7c4.9,3,8.7,6.4,11.4,10.4c2.7,4,4,8.2,4,12.7c0,7.2-2.2,12.8-6.7,16.7C225.7,112.9,219.3,114.8,211.1,114.8z
		"/>
	<path class="st0" d="M249.6,113.7V32.6h13v81.1H249.6z M261.4,90.4V76.5h9.6c4.3,0,7.6-1.4,10-4.1c2.3-2.7,3.5-6.6,3.5-11.5
		c0-4.6-1.2-8.2-3.5-10.7c-2.3-2.5-5.7-3.8-10-3.8h-9.4V32.6h9.4c8.8,0,15.5,2.4,20.3,7.2c4.8,4.8,7.2,11.5,7.2,20.3
		c0,9.7-2.4,17.2-7.2,22.5c-4.8,5.3-11.6,8-20.3,8H261.4z"/>
	<path class="st0" d="M368.3,114.8c-7.9,0-14.1-2.5-18.4-7.6c-4.3-5-6.5-12.1-6.5-21.2H357c0,4.6,1,8.1,3,10.7
		c2,2.5,4.9,3.8,8.5,3.8c3.7,0,6.6-1.3,8.6-3.8c2-2.5,3-6.1,3-10.7V32.6h13V86c0,9.1-2.2,16.2-6.6,21.3
		C382.2,112.3,376.1,114.8,368.3,114.8z M364.2,46.4V32.6h22.9v13.9H364.2z"/>
	<path class="st0" d="M428.2,114.8c-17.8,0-26.6-13.7-26.6-41.1c0-28.2,8.9-42.3,26.6-42.3c17.8,0,26.6,14.1,26.6,42.3
		C454.8,101.1,445.9,114.8,428.2,114.8z M428.2,100.4c8.7,0,13-8.9,13-26.7c0-18.6-4.3-27.9-13-27.9c-8.7,0-13,9.3-13,27.9
		C415.2,91.5,419.5,100.4,428.2,100.4z"/>
	<path class="st0" d="M463.2,113.7V32.6h13v81.1H463.2z M465.3,80.3V66.3h43.1v13.9H465.3z M497.2,113.7V32.6h13v81.1H497.2z"/>
	<path class="st0" d="M545.3,114.8c-17.8,0-26.6-13.7-26.6-41.1c0-28.2,8.9-42.3,26.6-42.3s26.6,14.1,26.6,42.3
		C571.9,101.1,563.1,114.8,545.3,114.8z M545.3,100.4c8.7,0,13-8.9,13-26.7c0-18.6-4.3-27.9-13-27.9c-8.7,0-13,9.3-13,27.9
		C532.3,91.5,536.6,100.4,545.3,100.4z"/>
	<path class="st0" d="M580.4,113.7V32.6h13v81.1H580.4z M592.7,84V70.1h12.6c3,0,5.4-1,7-3.1c1.7-2.1,2.5-5,2.5-8.7
		c0-3.8-0.8-6.7-2.5-8.7s-4-3.1-7-3.1h-12.4l-1.2-13.9h13.5c7.5,0,13.3,2.1,17.4,6.4c4.1,4.3,6.2,10.3,6.2,18.2
		c0,8.5-2.1,15.1-6.2,19.8c-4.1,4.7-9.9,7.1-17.4,7.1H592.7z M615.9,113.7l-13.2-38.2h13.7l15,38.2H615.9z"/>
</g>
<image style="overflow:visible;" width="400" height="400" xlink:href="jspLogo.png"  transform="matrix(0.2507 0 0 0.2507 5.4421 20.0526)">
</image>
</svg>
